# Blender v2.77 (sub 0) OBJ File: ''
# www.blender.org
mtllib Banana.mtl
o n0b0_n0b0.001
v -0.000066 0.810877 -0.821805
v -0.000066 0.810877 -0.821805
v -0.780595 0.479424 -0.428673
v -0.780595 0.479424 -0.428673
v -0.780595 0.479424 -0.428673
v -0.780595 0.479424 -0.428673
v -0.728808 0.810947 0.380212
v -0.728808 0.810947 0.380212
v -0.728808 0.810947 0.380212
v -0.000098 0.479349 0.768192
v -0.000098 0.479349 0.768192
v -0.000098 0.479349 0.768192
v -0.000098 0.479349 0.768192
v 0.728676 0.810807 0.380212
v 0.728676 0.810807 0.380212
v 0.728676 0.810807 0.380212
v 0.780399 0.479275 -0.428673
v 0.780399 0.479275 -0.428673
v 0.780399 0.479275 -0.428673
v 0.780399 0.479275 -0.428673
v 0.343018 2.522651 -0.287239
v 0.343018 2.522651 -0.287239
v -0.342822 2.522717 -0.287239
v -0.342822 2.522717 -0.287239
v -0.685759 2.348080 0.280452
v -0.685759 2.348080 0.280452
v -0.685759 2.348080 0.280452
v -0.342856 2.173378 0.848143
v -0.342856 2.173378 0.848143
v 0.342985 2.173312 0.848143
v 0.342985 2.173312 0.848143
v 0.685921 2.347949 0.280452
v 0.685921 2.347949 0.280452
v 0.685921 2.347949 0.280452
v 0.222069 3.633787 0.723465
v 0.000217 3.761327 0.541909
v -0.221660 3.633829 0.723465
v 0.000192 3.506289 0.905021
v 0.372168 4.555129 1.313474
v -0.278796 4.644099 1.147059
v -0.194032 4.152716 1.565609
v -1.545929 0.062930 0.094330
v -0.866397 0.034469 1.176574
v -1.215142 0.430780 0.628006
v 0.866126 0.034379 1.176605
v 1.545630 0.062562 0.094335
v 1.214949 0.430547 0.627984
v 0.664706 0.051033 -1.378946
v -0.000052 0.507052 -1.358288
v -0.665064 0.042972 -1.373654
v 2.370896 0.002913 1.813083
v 2.844430 0.019774 1.034037
v 2.456975 0.321662 1.349573
v 0.455327 0.019755 -2.964192
v 0.000002 0.489262 -2.790281
v -0.455572 0.014069 -2.958095
v -2.844709 0.020359 1.034070
v -2.371154 0.003300 1.813098
v -2.457170 0.322119 1.349625
v -3.333167 0.557028 1.692638
v -3.221976 0.554554 1.962496
v 3.221858 0.553977 1.962393
v 3.333040 0.556394 1.692531
v 0.104462 0.572390 -3.716994
v -0.104337 0.571354 -3.714608
vt 0.5000 0.9537
vt 0.7500 0.6341
vt 0.2500 0.6341
vt 0.6617 0.9357
vt 0.7711 0.9874
vt 0.5000 0.9175
vt 0.3583 0.9874
vt 0.3382 0.9357
vt 0.2965 0.9874
vt 0.5311 0.4717
vt 0.5270 0.5154
vt 0.5289 0.4900
vt 0.5125 0.6036
vt 0.4999 0.4900
vt 0.4835 0.6036
vt 0.4689 0.4846
vt 0.4691 0.5154
vt 0.4716 0.4900
vt 0.2500 0.6099
vt 0.0000 0.6346
vt 0.7500 0.6099
vt 1.0000 0.6346
vt 0.0000 0.1573
vt 0.5000 0.2003
vt 0.0000 0.2434
vt 0.5000 0.1573
vt 0.1000 0.0137
vt 0.5000 0.0211
vt 0.3000 0.0045
vt 0.7000 0.0045
vt 0.5000 0.2003
vt 1.0000 0.1573
vt 1.0000 0.2434
vt 0.5000 0.1573
vt 0.0000 0.1573
vt 0.5000 0.0211
vt 0.1000 0.0137
vt 0.3000 0.0045
vt 1.0000 0.1573
vt 1.0000 0.2434
vt 0.9000 0.0137
vt 0.0000 0.1573
vt 0.5000 0.2003
vt 0.0000 0.2434
vt 0.5000 0.1573
vt 0.5000 0.0211
vt 1.0000 0.1573
vt 0.9000 0.0137
vt 0.9000 0.0137
vt 0.7000 0.0045
vt 0.7460 0.6273
vt 1.0620 0.2672
vt 1.0287 0.6250
vt 0.5106 0.1656
vt 0.2501 0.6273
vt 0.1000 0.0137
vt 0.7000 0.0045
vt 0.3000 0.0045
vt 1.0000 0.2434
vt 0.0131 0.2668
vt -0.0326 0.6250
vt 0.0000 0.2434
vt 0.4807 0.5000
vt 0.5192 0.5000
vt 0.5002 0.5000
vn 0.0001 0.5563 -0.8310
vn 0.6997 0.5209 -0.4890
vn 0.7015 0.2998 -0.6466
vn 0.7055 -0.4601 0.5390
vn 0.6146 -0.4659 0.6366
vn -0.6805 -0.6137 0.4004
vn -0.9915 -0.0940 0.0904
vn -0.6943 0.2445 -0.6768
vn 0.2741 0.6012 -0.7506
vn 0.9982 0.0311 0.0511
vn 0.8637 0.2164 -0.4551
vn 0.4989 0.1657 -0.8507
vn 0.0000 0.2981 -0.9545
vn -0.4989 0.1658 -0.8507
vn -0.8637 0.2165 -0.4551
vn -0.9982 0.0313 0.0511
vn -0.8342 0.1153 0.5393
vn -0.5878 0.1171 0.8005
vn -0.0000 -0.0426 0.9991
vn 0.5878 0.1170 0.8005
vn 0.8342 0.1151 0.5393
vn 0.8267 0.4252 -0.3685
vn -0.5965 0.7553 -0.2714
vn -0.6480 0.7526 -0.1171
vn -0.3161 0.8613 -0.3978
vn -0.3188 0.8493 -0.4207
vn -0.0541 0.7540 -0.6546
vn 0.2270 0.9702 -0.0846
vn -0.5235 0.7474 -0.4092
vn -0.5119 0.7475 -0.4233
vn 0.5028 0.7522 -0.4260
vn 0.5654 0.8247 -0.0102
vn 0.6940 0.7122 -0.1057
vn 0.7364 0.6614 0.1423
vn 0.3556 -0.9054 -0.2320
vn 0.3359 -0.9121 -0.2349
vn 0.0076 -0.9995 -0.0310
vn 0.0118 -0.9995 -0.0290
vn -0.5045 -0.8137 0.2889
vn 0.0423 0.7190 0.6937
vn 0.2242 0.7169 0.6602
vn -0.2062 0.8508 0.4833
vn 0.3093 0.8616 -0.4024
vn 0.3265 0.8504 -0.4126
vn -0.5721 0.8201 -0.0102
vn -0.6990 0.7073 -0.1053
vn -0.7391 0.6585 0.1419
vn 0.8465 0.0579 0.5292
vn 0.5153 -0.1442 0.8448
vn -0.0000 -0.0471 0.9989
vn 0.5073 -0.8379 0.2015
vn 0.5043 -0.8137 0.2889
vn -0.0120 -0.9995 -0.0289
vn 0.0543 0.7539 -0.6547
vn -0.2268 0.9702 -0.0847
vn -0.5462 0.7341 0.4034
vn -0.0078 -0.9995 -0.0309
vn -0.3362 -0.9121 -0.2348
vn -0.3557 -0.9054 -0.2319
vn -0.8465 0.0581 0.5292
vn -0.5154 -0.1441 0.8448
vn -0.6996 0.5211 -0.4890
vn -0.8266 0.4253 -0.3685
vn 0.6481 0.7524 -0.1172
vn 0.5967 0.7552 -0.2714
vn 0.0011 -0.8054 -0.5928
vn -0.0027 -0.8067 -0.5909
vn 0.1907 0.8493 0.4923
vn 0.2314 0.8211 0.5219
vn -0.0422 0.7190 0.6937
vn -0.2240 0.7169 0.6603
vn 0.0061 -0.9998 0.0189
vn 0.0064 -0.9998 0.0191
vn -0.0001 -0.9117 0.4109
vn 0.0072 -0.9075 0.4200
vn -0.0039 0.9960 0.0889
vn -0.5075 -0.8378 0.2014
vn 0.5464 0.7339 0.4035
vn -0.2062 0.8237 0.5282
vn -0.0001 -1.0000 0.0000
vn 0.5222 0.7519 -0.4024
vn -0.1092 0.6336 0.7659
usemtl m0
s off
f 36/1/1 22/2/1 24/3/1
f 22/2/2 36/1/2 35/4/2
f 39/5/3 35/4/3 36/1/3
f 35/4/4 39/5/4 38/6/4
f 41/7/5 38/6/5 39/5/5
f 38/6/6 41/7/6 37/8/6
f 40/9/7 37/8/7 41/7/7
f 37/8/8 40/9/8 36/1/8
f 39/5/9 36/1/9 40/9/9
f 17/10/10 33/11/10 15/12/10
f 33/11/11 17/10/11 21/13/11
f 1/14/12 21/13/12 17/10/12
f 21/13/13 1/14/13 23/15/13
f 1/14/14 3/16/14 23/15/14
f 23/15/15 3/16/15 26/17/15
f 8/18/16 26/17/16 3/16/16
f 29/19/17 37/8/17 27/20/17
f 37/8/18 29/19/18 38/6/18
f 31/21/19 38/6/19 29/19/19
f 38/6/20 31/21/20 35/4/20
f 34/22/21 35/4/21 31/21/21
f 35/4/22 34/22/22 22/2/22
f 42/23/23 9/24/23 4/25/23
f 9/24/24 42/23/24 44/26/24
f 57/27/25 44/26/25 42/23/25
f 44/26/26 57/27/26 59/28/26
f 60/29/27 59/28/27 57/27/27
f 59/28/28 60/29/28 61/30/28
f 2/31/29 50/32/29 5/33/29
f 50/32/30 2/31/30 49/34/30
f 48/35/31 49/34/31 2/31/31
f 49/34/32 48/35/32 55/36/32
f 54/37/33 55/36/33 48/35/33
f 55/36/34 54/37/34 64/38/34
f 43/39/35 4/25/35 12/40/35
f 4/25/36 43/39/36 42/23/36
f 58/41/37 42/23/37 43/39/37
f 42/23/38 58/41/38 57/27/38
f 60/29/39 57/27/39 58/41/39
f 45/42/40 16/43/40 11/44/40
f 16/43/41 45/42/41 47/45/41
f 53/46/42 47/45/42 45/42/42
f 47/45/43 53/46/43 46/47/43
f 52/48/44 46/47/44 53/46/44
f 55/36/45 50/32/45 49/34/45
f 50/32/46 55/36/46 56/49/46
f 65/50/47 56/49/47 55/36/47
f 30/51/48 14/52/48 32/53/48
f 14/52/49 30/51/49 10/54/49
f 28/55/50 10/54/50 30/51/50
f 51/56/51 63/57/51 62/58/51
f 63/57/52 51/56/52 52/48/52
f 46/47/53 52/48/53 51/56/53
f 53/46/54 63/57/54 52/48/54
f 63/57/55 53/46/55 62/58/55
f 51/56/56 62/58/56 53/46/56
f 45/42/57 46/47/57 51/56/57
f 46/47/58 45/42/58 19/59/58
f 11/44/59 19/59/59 45/42/59
f 7/60/60 28/55/60 25/61/60
f 28/55/61 7/60/61 10/54/61
f 24/3/62 37/8/62 36/1/62
f 37/8/63 24/3/63 27/20/63
f 46/47/64 16/43/64 47/45/64
f 16/43/65 46/47/65 19/59/65
f 65/50/66 54/37/66 56/49/66
f 54/37/67 65/50/67 64/38/67
f 44/26/68 58/41/68 43/39/68
f 58/41/69 44/26/69 59/28/69
f 9/24/70 43/39/70 12/40/70
f 43/39/71 9/24/71 44/26/71
f 50/32/72 54/37/72 48/35/72
f 54/37/73 50/32/73 56/49/73
f 5/33/74 48/35/74 18/62/74
f 48/35/75 5/33/75 50/32/75
f 65/50/76 55/36/76 64/38/76
f 58/41/77 61/30/77 60/29/77
f 58/41/78 59/28/78 61/30/78
f 51/56/79 53/46/79 45/42/79
f 6/63/80 20/64/80 13/65/80
f 18/62/81 48/35/81 2/31/81
f 39/5/82 40/9/82 41/7/82
